<svg width="38" height="34" viewBox="0 0 38 34" fill="none" xmlns="http://www.w3.org/2000/svg">
<path d="M19.5144 34C18.9622 34 18.5144 33.5523 18.5144 33V32.875C18.5144 32.3227 18.9622 31.875 19.5144 31.875H32.4794C32.8313 31.875 33.1353 31.7659 33.3914 31.5478C33.649 31.3296 33.7778 31.0434 33.7778 30.6892V16.0523C33.7778 12.0714 32.3239 8.74721 29.4162 6.07963C26.5071 3.41063 23.035 2.07613 19 2.07613C14.965 2.07613 11.4929 3.41063 8.58378 6.07963C5.67607 8.74721 4.22222 12.0714 4.22222 16.0523V27.1159C4.22222 27.6682 3.77451 28.1159 3.22222 28.1159H3.16667C2.30393 28.1159 1.56011 27.8219 0.935222 27.234C0.311741 26.6475 0 25.9208 0 25.0538V21.0481C0 20.4135 0.204778 19.8503 0.614333 19.3588C1.0253 18.8658 1.52422 18.4655 2.11111 18.1581L2.147 15.5465C2.185 13.3294 2.66352 11.2753 3.58256 9.384C4.50159 7.49275 5.72885 5.84729 7.26433 4.44763C8.79981 3.04796 10.576 1.95713 12.5928 1.17513C14.6096 0.393129 16.7453 0.0014205 19 3.83574e-06C21.2547 -0.00141283 23.389 0.389587 25.403 1.173C27.417 1.95642 29.1854 3.04584 30.7082 4.44125C32.231 5.83667 33.452 7.48 34.371 9.37125C35.29 11.2625 35.784 13.3167 35.853 15.5338L35.8889 18.0901C36.449 18.355 36.9409 18.7113 37.3646 19.159C37.7882 19.6053 38 20.1415 38 20.7676V25.3704C38 25.9965 37.7882 26.5328 37.3646 26.979C36.9409 27.4252 36.449 27.7808 35.8889 28.0458V30.6892C35.8889 31.6129 35.5567 32.3956 34.8924 33.0374C34.2281 33.6791 33.4238 34 32.4794 34H19.5144ZM13.4794 20.2704C13.0431 20.2704 12.6631 20.1209 12.3394 19.822C12.0157 19.5245 11.8539 19.1562 11.8539 18.717C11.8539 18.2778 12.0157 17.9024 12.3394 17.5908C12.6631 17.2791 13.0431 17.1233 13.4794 17.1233C13.9157 17.1233 14.295 17.2791 14.6173 17.5908C14.9396 17.9024 15.1015 18.2778 15.1029 18.717C15.1043 19.1562 14.9424 19.5245 14.6173 19.822C14.2922 20.1195 13.9122 20.2683 13.4773 20.2683M24.5227 20.2683C24.0864 20.2683 23.7064 20.1195 23.3827 19.822C23.059 19.5245 22.8971 19.1562 22.8971 18.717C22.8971 18.2778 23.059 17.9024 23.3827 17.5908C23.7064 17.2791 24.0864 17.1233 24.5227 17.1233C24.959 17.1233 25.3383 17.2791 25.6606 17.5908C25.9829 17.9024 26.1447 18.2778 26.1461 18.717C26.1475 19.1562 25.9857 19.5245 25.6606 19.822C25.3354 20.1195 24.9554 20.2683 24.5206 20.2683M7.84911 16.8938C7.6577 13.7119 8.67596 10.9997 10.9039 8.75713C13.1304 6.51455 15.865 5.39325 19.1077 5.39325C21.8324 5.39325 24.2475 6.21705 26.353 7.86463C28.4585 9.51221 29.7434 11.6762 30.2079 14.3565C27.4114 14.3211 24.8161 13.6028 22.4221 12.2018C20.0281 10.8007 18.1914 8.85275 16.9121 6.358C16.4026 8.81025 15.3436 10.9593 13.7349 12.8053C12.1248 14.6512 10.1629 16.014 7.84911 16.8938Z" fill="#FF5F64"/>
</svg>
