<svg width="138" height="138" viewBox="0 0 138 138" fill="none" xmlns="http://www.w3.org/2000/svg">
<rect width="138" height="138" rx="29" fill="#AD272B"/>
<path d="M84.2295 61.1147H52.5574C46.7267 61.1147 42 65.8414 42 71.6721V87.5082C42 93.3389 46.7267 98.0656 52.5574 98.0656H84.2295C90.0602 98.0656 94.7869 93.3389 94.7869 87.5082V71.6721C94.7869 65.8414 90.0602 61.1147 84.2295 61.1147Z" stroke="#F9EEEE" stroke-width="6" stroke-linecap="round" stroke-linejoin="round"/>
<path d="M68.3934 50.5574C71.3088 50.5574 73.6721 48.194 73.6721 45.2787C73.6721 42.3633 71.3088 40 68.3934 40C65.4781 40 63.1147 42.3633 63.1147 45.2787C63.1147 48.194 65.4781 50.5574 68.3934 50.5574Z" stroke="#F9EEEE" stroke-width="6" stroke-linecap="round" stroke-linejoin="round"/>
<path d="M68.3934 50.5574V61.1147M60.4753 82.2295V76.9508M76.3114 76.9508V82.2295" stroke="#F9EEEE" stroke-width="6" stroke-linecap="round" stroke-linejoin="round"/>
</svg>
