<svg width="38" height="30" viewBox="0 0 38 30" fill="none" xmlns="http://www.w3.org/2000/svg">
<path d="M0 25.2273C0 26.4931 0.500445 27.707 1.39124 28.6021C2.28204 29.4972 3.49022 30 4.75 30H33.25C34.5098 30 35.718 29.4972 36.6088 28.6021C37.4996 27.707 38 26.4931 38 25.2273V12.1023H0V25.2273ZM5.59821 18.75C5.59821 18.0719 5.86631 17.4216 6.34352 16.9421C6.82074 16.4626 7.46798 16.1932 8.14286 16.1932H12.2143C12.8892 16.1932 13.5364 16.4626 14.0136 16.9421C14.4908 17.4216 14.7589 18.0719 14.7589 18.75V20.4545C14.7589 21.1327 14.4908 21.783 14.0136 22.2625C13.5364 22.742 12.8892 23.0114 12.2143 23.0114H8.14286C7.46798 23.0114 6.82074 22.742 6.34352 22.2625C5.86631 21.783 5.59821 21.1327 5.59821 20.4545V18.75ZM33.25 0H4.75C3.49022 0 2.28204 0.50284 1.39124 1.3979C0.500445 2.29296 0 3.50692 0 4.77273V6.98864H38V4.77273C38 3.50692 37.4996 2.29296 36.6088 1.3979C35.718 0.50284 34.5098 0 33.25 0Z" fill="white"/>
</svg>
