<svg width="27" height="28" viewBox="0 0 27 28" fill="none" xmlns="http://www.w3.org/2000/svg">
<path d="M1 19.7987C1 21.0224 1 21.6329 1.10132 22.1408C1.30436 23.1619 1.80565 24.0998 2.54178 24.8359C3.2779 25.572 4.2158 26.0733 5.23684 26.2764C5.74474 26.3777 6.35526 26.3777 7.57895 26.3777M26 19.7987C26 21.0224 26 21.6329 25.8987 22.1408C25.6956 23.1619 25.1943 24.0998 24.4582 24.8359C23.7221 25.572 22.7842 26.0733 21.7632 26.2764C21.2553 26.3777 20.6447 26.3777 19.4211 26.3777M26 7.95663C26 6.73295 26 6.12242 25.8987 5.61453C25.6956 4.59348 25.1943 3.65559 24.4582 2.91946C23.7221 2.18334 22.7842 1.68205 21.7632 1.479C21.2553 1.37769 20.6447 1.37769 19.4211 1.37769M1 7.95663C1 6.73295 1 6.12242 1.10132 5.61453C1.30436 4.59348 1.80565 3.65559 2.54178 2.91946C3.2779 2.18334 4.2158 1.68205 5.23684 1.479C5.74474 1.37769 6.35526 1.37769 7.57895 1.37769M13.5 9.27242V6.64084M10.8684 13.2198V13.8777M16.1316 13.2198V13.8777M12.1842 9.27242H14.8158C17.2974 9.27242 18.5368 9.27242 19.3079 10.0435C20.0789 10.8145 20.0789 12.054 20.0789 14.5356C20.0789 17.0172 20.0789 18.2566 19.3079 19.0277C18.5368 19.7987 17.2974 19.7987 14.8158 19.7987H12.1842C9.70263 19.7987 8.46316 19.7987 7.69211 19.0277C6.92105 18.2566 6.92105 17.0172 6.92105 14.5356C6.92105 12.054 6.92105 10.8145 7.69211 10.0435C8.46316 9.27242 9.70263 9.27242 12.1842 9.27242Z" stroke="#AD272B" stroke-width="1.5" stroke-linecap="round" stroke-linejoin="round"/>
</svg>
