<svg width="22" height="11" viewBox="0 0 22 11" fill="none" xmlns="http://www.w3.org/2000/svg">
<path d="M11.6854 10.723L21.7386 1.40336C21.9064 1.24785 22 1.04126 22 0.826415C22 0.611575 21.9064 0.404978 21.7386 0.249475L21.7272 0.23944C21.6458 0.163794 21.5479 0.103558 21.4394 0.062397C21.3308 0.0212355 21.2139 9.46813e-06 21.0958 9.45782e-06C20.9777 9.44751e-06 20.8608 0.0212355 20.7522 0.0623969C20.6437 0.103558 20.5457 0.163794 20.4644 0.23944L10.9981 9.01564L1.53561 0.239438C1.45425 0.163792 1.35632 0.103557 1.24778 0.0623952C1.13923 0.0212338 1.02234 7.70575e-06 0.90421 7.69544e-06C0.786084 7.68513e-06 0.669193 0.0212337 0.560647 0.0623951C0.452101 0.103557 0.354168 0.163792 0.272809 0.239438L0.261449 0.249473C0.0936217 0.404976 -9.99249e-07 0.611573 -1.01806e-06 0.826413C-1.03687e-06 1.04125 0.0936216 1.24785 0.261449 1.40335L10.3146 10.723C10.403 10.805 10.5094 10.8703 10.6272 10.9148C10.745 10.9594 10.8718 10.9824 11 10.9824C11.1282 10.9824 11.255 10.9594 11.3728 10.9148C11.4906 10.8703 11.5969 10.805 11.6854 10.723Z" fill="#1C2258"/>
</svg>
