<svg width="138" height="138" viewBox="0 0 138 138" fill="none" xmlns="http://www.w3.org/2000/svg">
<rect width="138" height="138" rx="29" fill="url(#paint0_linear_22_48)"/>
<path d="M69.5 43C73.2792 43.0061 77.0123 43.8292 80.4442 45.4119C83.5977 46.5867 90.646 50.8603 93.614 58.5558C95.1245 61.8948 96 65.6045 96 69.5C96 84.075 84.075 96 69.5 96C54.925 96 43 84.075 43 69.5C43 54.925 54.925 43 69.5 43ZM63.5116 54.4204C62.1225 57.7849 60.0546 60.8286 57.4378 63.3589C54.8208 65.8894 51.7097 67.8547 48.3 69.1299V69.5C48.3 81.2395 57.7605 90.7 69.5 90.7C81.2395 90.7 90.7 81.2395 90.7 69.5C90.7 68.1753 90.5683 66.9565 90.3299 65.7113C90.223 65.2315 90.0976 64.7646 89.9676 64.3087C85.3615 64.6786 78.2161 63.883 74.3109 62.3367C70.0932 60.6663 66.3745 57.9394 63.5116 54.4204ZM61.55 68.8375C61.985 68.8375 62.4162 68.9221 62.8181 69.0885C63.22 69.255 63.5844 69.5004 63.892 69.808C64.1996 70.1156 64.445 70.48 64.6115 70.8819C64.7779 71.2838 64.8625 71.715 64.8625 72.15C64.8625 72.585 64.7779 73.0162 64.6115 73.4181C64.445 73.82 64.1996 74.1844 63.892 74.492C63.5844 74.7996 63.22 75.045 62.8181 75.2115C62.4162 75.3779 61.985 75.4625 61.55 75.4625C60.6715 75.4625 59.8292 75.1133 59.208 74.492C58.5867 73.8708 58.2375 73.0285 58.2375 72.15C58.2375 71.2715 58.5867 70.4292 59.208 69.808C59.8292 69.1867 60.6715 68.8375 61.55 68.8375ZM77.45 68.8375C78.3285 68.8375 79.1708 69.1867 79.792 69.808C80.4133 70.4292 80.7625 71.2715 80.7625 72.15C80.7625 73.0285 80.4133 73.8708 79.792 74.492C79.1708 75.1133 78.3285 75.4625 77.45 75.4625C76.5715 75.4625 75.7292 75.1133 75.108 74.492C74.4867 73.8708 74.1375 73.0285 74.1375 72.15C74.1375 71.2715 74.4867 70.4292 75.108 69.808C75.7292 69.1867 76.5715 68.8375 77.45 68.8375ZM59.1381 50.95C54.5803 53.6 51.0564 57.7607 49.3869 62.875C54.0177 60.2634 57.4977 56.007 59.1381 50.95ZM69.5 48.3C68.2811 48.3 67.1153 48.4328 65.9494 48.6183C69.7655 54.9251 76.6022 58.9 84.075 58.9L87.7576 59.0889C83.7114 52.1575 76.8699 49.2517 73.2628 48.6442C72.0439 48.4322 70.8249 48.3 69.5 48.3Z" fill="#1C2258"/>
<defs>
<linearGradient id="paint0_linear_22_48" x1="134.77" y1="-6.99594e-06" x2="14.2904" y2="149.515" gradientUnits="userSpaceOnUse">
<stop offset="0.146122" stop-color="#FED1C6"/>
<stop offset="0.5" stop-color="#DBC0CC"/>
<stop offset="1" stop-color="#A9CBEA"/>
</linearGradient>
</defs>
</svg>
