<svg width="30" height="30" viewBox="0 0 30 30" fill="none" xmlns="http://www.w3.org/2000/svg">
<path d="M27.999 20.6719C28.3476 20.6703 28.6512 20.7905 28.8916 21.0342C29.1302 21.2761 29.25 21.5775 29.25 21.9219V25.7676C29.25 26.751 28.9187 27.5852 28.2529 28.251C27.5872 28.9167 26.753 29.2485 25.7686 29.25H4.23242C3.24903 29.25 2.41482 28.9187 1.74902 28.2529C1.0833 27.5872 0.751465 26.753 0.75 25.7686V21.9219C0.75003 21.5756 0.869149 21.2734 1.10938 21.0332C1.34955 20.7931 1.65209 20.6735 1.99902 20.6719C2.3476 20.6703 2.65115 20.7905 2.8916 21.0342C3.1302 21.2761 3.24997 21.5775 3.25 21.9219V25.7676C3.25 25.9978 3.34318 26.22 3.56152 26.4395C3.77929 26.6583 3.99944 26.7509 4.22852 26.75H25.7695C25.9981 26.75 26.2197 26.6571 26.4395 26.4385C26.6581 26.221 26.7509 26.0002 26.75 25.7695V21.9219C26.75 21.5756 26.8691 21.2734 27.1094 21.0332C27.3495 20.7931 27.6521 20.6735 27.999 20.6719ZM15.001 0.75C15.3474 0.751619 15.6503 0.869772 15.8906 1.1084C16.1319 1.34801 16.25 1.65173 16.25 2V17.6963L19.7656 14.1816C20.0036 13.9436 20.294 13.8134 20.627 13.8018C20.9759 13.7896 21.2847 13.9318 21.5449 14.1934L21.5479 14.1963C21.7952 14.4515 21.9391 14.7456 21.9443 15.0742C21.9496 15.409 21.8018 15.7054 21.5459 15.96L16.3066 21.2012C16.1627 21.3451 16.0104 21.462 15.8496 21.5479L15.6865 21.623C15.4733 21.7061 15.2436 21.7461 15 21.7461C14.7575 21.7461 14.5276 21.7059 14.3135 21.623C14.0913 21.537 13.8849 21.3921 13.6934 21.1992L8.45312 15.9609C8.21553 15.7233 8.08619 15.4341 8.07617 15.1035C8.06585 14.7622 8.20003 14.4576 8.44922 14.1973L8.45312 14.1934C8.70921 13.9373 9.00615 13.7875 9.33984 13.7822C9.67817 13.7769 9.97871 13.9235 10.2354 14.1816H10.2344L13.75 17.6963V2C13.75 1.65364 13.8687 1.35072 14.1084 1.10938C14.349 0.86715 14.6528 0.748417 15.001 0.75Z" fill="#AD272B" stroke="#AD272B" stroke-width="0.5"/>
</svg>
