<svg width="17" height="17" viewBox="0 0 17 17" fill="none" xmlns="http://www.w3.org/2000/svg">
<path fill-rule="evenodd" clip-rule="evenodd" d="M17 8.5C17 13.1946 13.1946 17 8.5 17C3.80545 17 0 13.1946 0 8.5C0 3.80545 3.80545 0 8.5 0C13.1946 0 17 3.80545 17 8.5ZM7.65 5.1C7.65 5.32543 7.73955 5.54164 7.89896 5.70104C8.05837 5.86045 8.27457 5.95 8.5 5.95H8.5068C8.73223 5.95 8.94843 5.86045 9.10784 5.70104C9.26725 5.54164 9.3568 5.32543 9.3568 5.1C9.3568 4.87457 9.26725 4.65837 9.10784 4.49896C8.94843 4.33955 8.73223 4.25 8.5068 4.25H8.5C8.27457 4.25 8.05837 4.33955 7.89896 4.49896C7.73955 4.65837 7.65 4.87457 7.65 5.1ZM8.5 12.75C8.72543 12.75 8.94164 12.6604 9.10104 12.501C9.26045 12.3416 9.35 12.1254 9.35 11.9V7.65C9.35 7.42457 9.26045 7.20837 9.10104 7.04896C8.94164 6.88955 8.72543 6.8 8.5 6.8C8.27457 6.8 8.05837 6.88955 7.89896 7.04896C7.73955 7.20837 7.65 7.42457 7.65 7.65V11.9C7.65 12.1254 7.73955 12.3416 7.89896 12.501C8.05837 12.6604 8.27457 12.75 8.5 12.75Z" fill="#AD272B"/>
</svg>
