<svg width="9" height="17" viewBox="0 0 9 17" fill="none" xmlns="http://www.w3.org/2000/svg">
<path d="M8.78745 7.9704L1.15003 0.202029C1.0226 0.0723445 0.853293 -3.56104e-07 0.677234 -3.638e-07C0.501173 -3.71496e-07 0.33187 0.0723445 0.204435 0.202029L0.196213 0.210807C0.134221 0.273676 0.0848589 0.34935 0.0511274 0.433226C0.017396 0.517103 9.27123e-07 0.607428 9.23133e-07 0.698708C9.19143e-07 0.789987 0.0173959 0.880312 0.0511274 0.964189C0.0848588 1.04807 0.134221 1.12374 0.196213 1.18661L7.38824 8.50146L0.196212 15.8134C0.13422 15.8763 0.0848582 15.9519 0.0511267 16.0358C0.0173953 16.1197 2.45112e-07 16.21 2.41122e-07 16.3013C2.37132e-07 16.3926 0.0173953 16.4829 0.0511267 16.5668C0.0848582 16.6506 0.13422 16.7263 0.196212 16.7892L0.204435 16.798C0.331869 16.9277 0.501172 17 0.677233 17C0.853293 17 1.0226 16.9277 1.15003 16.798L8.78745 9.0296C8.85461 8.96128 8.90809 8.87911 8.94462 8.78808C8.98116 8.69704 9 8.59904 9 8.5C9 8.40096 8.98116 8.30295 8.94462 8.21192C8.90809 8.12089 8.85461 8.03872 8.78745 7.9704Z" fill="white"/>
</svg>
