<svg width="30" height="25" viewBox="0 0 30 25" fill="none" xmlns="http://www.w3.org/2000/svg">
<path d="M12.0426 0.369274L-5.49085e-07 12.4384L12.0426 24.5075C12.1514 24.6499 12.2895 24.7674 12.4478 24.8519C12.606 24.9364 12.7806 24.9861 12.9598 24.9975C13.1389 25.0089 13.3185 24.9817 13.4862 24.918C13.6539 24.8542 13.806 24.7552 13.932 24.6277C14.058 24.5003 14.1551 24.3473 14.2167 24.1792C14.2783 24.011 14.3029 23.8317 14.2889 23.6533C14.2749 23.4748 14.2226 23.3015 14.1356 23.1449C14.0486 22.9884 13.9288 22.8523 13.7845 22.7459L4.77444 13.6878L28.7469 13.6878C29.0792 13.6878 29.398 13.5562 29.633 13.3219C29.868 13.0876 30 12.7698 30 12.4384C30 12.107 29.868 11.7893 29.633 11.555C29.398 11.3206 29.0792 11.189 28.7469 11.189L4.77444 11.189L13.7845 2.13092C14.0188 1.89565 14.1497 1.57722 14.1486 1.24568C14.1474 0.914134 14.0142 0.596635 13.7782 0.363027C13.5422 0.129417 13.2228 -0.00116406 12.8903 7.06594e-06C12.5578 0.0011801 12.2393 0.13401 12.005 0.369274L12.0426 0.369274Z" fill="white"/>
</svg>
