<svg width="33" height="35" viewBox="0 0 33 35" fill="none" xmlns="http://www.w3.org/2000/svg">
<path d="M15.9387 28.1781H28.0867C28.5597 28.2046 29.0317 28.1095 29.4576 27.9018C29.8834 27.6942 30.249 27.3809 30.5195 26.9919C30.7899 26.6028 30.9562 26.151 31.0025 25.6795C31.0487 25.2079 30.9735 24.7324 30.7838 24.2982C30.1416 22.3574 27.5818 20.0295 27.5818 17.7391C27.5818 12.6551 27.5818 11.3172 25.0773 8.32752C24.2668 7.3652 23.262 6.58524 22.1286 6.03886L20.7319 5.361C20.4975 5.21954 20.2953 5.0306 20.1384 4.80633C19.9814 4.58207 19.873 4.32743 19.8204 4.0588C19.6807 3.15334 19.202 2.33487 18.4811 1.7694C17.7603 1.20393 16.8514 0.933799 15.9387 1.01379C15.0425 0.959974 14.1585 1.24215 13.4592 1.80521C12.7599 2.36827 12.2956 3.17177 12.157 4.0588C12.0941 4.33671 11.9709 4.5974 11.7961 4.82242C11.6214 5.04745 11.3993 5.23131 11.1455 5.361L9.7488 6.03886C8.61613 6.58545 7.61186 7.3654 6.8019 8.32752C4.29918 11.3172 4.29918 12.6551 4.29918 17.7391C4.29918 20.0295 1.85532 22.1237 1.21314 24.1805C0.826047 25.4238 0.611986 28.1781 3.85322 28.1781H15.9387Z" stroke="#1C2258" stroke-width="2" stroke-linecap="round" stroke-linejoin="round"/>
<path d="M21.76 28.178C21.7753 28.9466 21.6352 29.7103 21.3481 30.4234C21.061 31.1365 20.6328 31.7843 20.0892 32.3279C19.5456 32.8714 18.8979 33.2996 18.1848 33.5867C17.4717 33.8738 16.7079 34.0139 15.9393 33.9986C15.1706 34.0149 14.4065 33.8755 13.693 33.5887C12.9795 33.302 12.3315 32.8738 11.7878 32.33C11.2442 31.7862 10.8162 31.138 10.5297 30.4245C10.2431 29.7109 10.1039 28.9467 10.1205 28.178" stroke="#1C2258" stroke-width="2" stroke-linecap="round" stroke-linejoin="round"/>
</svg>
