<svg width="20" height="20" viewBox="0 0 20 20" fill="none" xmlns="http://www.w3.org/2000/svg">
<path fill-rule="evenodd" clip-rule="evenodd" d="M18.4096 7.86015C18.3513 7.85745 18.2929 7.85645 18.2346 7.85715H15.7996C13.8076 7.85715 12.1016 9.43815 12.1016 11.5002C12.1016 13.5622 13.8076 15.1432 15.8006 15.1432H18.2336C18.2949 15.1438 18.3532 15.1425 18.4086 15.1392C18.8196 15.1125 19.207 14.9375 19.4987 14.6467C19.7904 14.3559 19.9666 13.9691 19.9946 13.5582C19.9986 13.4992 19.9986 13.4362 19.9986 13.3782V9.62215C19.9986 9.56415 19.9986 9.50115 19.9946 9.44215C19.9666 9.03137 19.7905 8.64469 19.499 8.35392C19.2075 8.06315 18.8204 7.88805 18.4096 7.86115M15.5866 12.4722C16.0996 12.4722 16.5166 12.0382 16.5166 11.5012C16.5166 10.9642 16.0996 10.5302 15.5866 10.5302C15.0736 10.5302 14.6576 10.9642 14.6576 11.5012C14.6576 12.0382 15.0726 12.4722 15.5866 12.4722Z" fill="#C1C5F2"/>
<path fill-rule="evenodd" clip-rule="evenodd" d="M18.234 16.6002C18.2675 16.5991 18.3008 16.6058 18.3312 16.6198C18.3617 16.6339 18.3884 16.6549 18.4092 16.6812C18.43 16.7075 18.4444 16.7383 18.4511 16.7711C18.4579 16.8039 18.4568 16.8379 18.448 16.8702C18.254 17.5622 17.947 18.1522 17.454 18.6482C16.733 19.3752 15.818 19.6982 14.688 19.8512C13.59 20.0002 12.188 20.0002 10.416 20.0002H8.379C6.608 20.0002 5.205 20.0002 4.107 19.8512C2.977 19.6982 2.062 19.3752 1.341 18.6482C0.62 17.9232 0.3 17.0002 0.148 15.8622C0 14.7542 0 13.3402 0 11.5552V11.4452C0 9.66024 0 8.24524 0.148 7.13924C0.3 6.00024 0.62 5.08024 1.34 4.35124C2.061 3.62524 2.976 3.30124 4.106 3.14924C5.205 3.00024 6.608 3.00024 8.379 3.00024H10.416C12.187 3.00024 13.59 3.00024 14.688 3.14924C15.818 3.30224 16.733 3.62524 17.454 4.35124C17.947 4.84824 18.254 5.43824 18.448 6.13124C18.4566 6.16353 18.4575 6.19738 18.4507 6.23009C18.4439 6.26279 18.4295 6.29345 18.4087 6.31959C18.3879 6.34574 18.3613 6.36666 18.3309 6.38066C18.3006 6.39466 18.2674 6.40137 18.234 6.40024H15.801C13.067 6.40024 10.658 8.57724 10.658 11.5002C10.658 14.4232 13.068 16.6002 15.802 16.6002H18.234ZM3.614 6.88624C3.51879 6.88664 3.42459 6.90578 3.33678 6.94258C3.24897 6.97938 3.16927 7.03311 3.10222 7.10071C3.03518 7.16831 2.98211 7.24846 2.94604 7.33657C2.90997 7.42468 2.89161 7.51904 2.892 7.61424C2.892 8.01724 3.215 8.34324 3.614 8.34324H7.47C7.87 8.34324 8.193 8.01724 8.193 7.61424C8.19353 7.42187 8.11769 7.23715 7.98213 7.10065C7.84657 6.96415 7.66237 6.88704 7.47 6.88624H3.614Z" fill="#C1C5F2"/>
<path d="M5.77734 2.02434L7.73534 0.581345C8.24635 0.203759 8.86497 0 9.50034 0C10.1357 0 10.7543 0.203759 11.2653 0.581345L13.2343 2.03234C12.4103 2.00034 11.4903 2.00034 10.4833 2.00034H8.31334C7.39134 2.00034 6.54434 2.00034 5.77734 2.02434Z" fill="#C1C5F2"/>
</svg>
