<svg width="19" height="19" viewBox="0 0 19 19" fill="none" xmlns="http://www.w3.org/2000/svg">
<path d="M5.34555 0.697272C5.34555 0.512344 5.27209 0.33499 5.14132 0.204226C5.01056 0.0734624 4.83321 0 4.64828 0C4.46335 0 4.286 0.0734624 4.15523 0.204226C4.02447 0.33499 3.951 0.512344 3.951 0.697272V2.16619C2.61224 2.27311 1.73461 2.53528 1.0894 3.18142C0.443261 3.82663 0.181087 4.70519 0.0732422 6.04303H18.5203C18.4124 4.70426 18.1503 3.82663 17.5041 3.18142C16.8589 2.53528 15.9803 2.27311 14.6425 2.16526V0.697272C14.6425 0.512344 14.569 0.33499 14.4383 0.204226C14.3075 0.0734624 14.1302 0 13.9452 0C13.7603 0 13.583 0.0734624 13.4522 0.204226C13.3214 0.33499 13.248 0.512344 13.248 0.697272V2.1039C12.6297 2.09182 11.9362 2.09182 11.1561 2.09182H7.43737C6.65735 2.09182 5.9638 2.09182 5.34555 2.1039V0.697272Z" fill="#C1C5F2"/>
<path fill-rule="evenodd" clip-rule="evenodd" d="M0 9.52944C0 8.74942 1.03902e-08 8.05587 0.0120861 7.43762H18.5818C18.5939 8.05587 18.5939 8.74942 18.5939 9.52944V11.3888C18.5939 14.8947 18.5939 16.6481 17.5043 17.7368C16.4147 18.8255 14.6622 18.8264 11.1564 18.8264H7.43757C3.93169 18.8264 2.17828 18.8264 1.0896 17.7368C0.000929629 16.6472 0 14.8947 0 11.3888V9.52944ZM13.9454 11.3888C14.192 11.3888 14.4285 11.2909 14.6028 11.1165C14.7772 10.9422 14.8751 10.7057 14.8751 10.4591C14.8751 10.2126 14.7772 9.97609 14.6028 9.80174C14.4285 9.62739 14.192 9.52944 13.9454 9.52944C13.6989 9.52944 13.4624 9.62739 13.288 9.80174C13.1137 9.97609 13.0157 10.2126 13.0157 10.4591C13.0157 10.7057 13.1137 10.9422 13.288 11.1165C13.4624 11.2909 13.6989 11.3888 13.9454 11.3888ZM13.9454 15.1076C14.192 15.1076 14.4285 15.0097 14.6028 14.8353C14.7772 14.661 14.8751 14.4245 14.8751 14.1779C14.8751 13.9313 14.7772 13.6949 14.6028 13.5205C14.4285 13.3462 14.192 13.2482 13.9454 13.2482C13.6989 13.2482 13.4624 13.3462 13.288 13.5205C13.1137 13.6949 13.0157 13.9313 13.0157 14.1779C13.0157 14.4245 13.1137 14.661 13.288 14.8353C13.4624 15.0097 13.6989 15.1076 13.9454 15.1076ZM10.2267 10.4591C10.2267 10.7057 10.1287 10.9422 9.95436 11.1165C9.78 11.2909 9.54353 11.3888 9.29696 11.3888C9.05039 11.3888 8.81392 11.2909 8.63957 11.1165C8.46522 10.9422 8.36727 10.7057 8.36727 10.4591C8.36727 10.2126 8.46522 9.97609 8.63957 9.80174C8.81392 9.62739 9.05039 9.52944 9.29696 9.52944C9.54353 9.52944 9.78 9.62739 9.95436 9.80174C10.1287 9.97609 10.2267 10.2126 10.2267 10.4591ZM10.2267 14.1779C10.2267 14.4245 10.1287 14.661 9.95436 14.8353C9.78 15.0097 9.54353 15.1076 9.29696 15.1076C9.05039 15.1076 8.81392 15.0097 8.63957 14.8353C8.46522 14.661 8.36727 14.4245 8.36727 14.1779C8.36727 13.9313 8.46522 13.6949 8.63957 13.5205C8.81392 13.3462 9.05039 13.2482 9.29696 13.2482C9.54353 13.2482 9.78 13.3462 9.95436 13.5205C10.1287 13.6949 10.2267 13.9313 10.2267 14.1779ZM4.64848 11.3888C4.89505 11.3888 5.13152 11.2909 5.30588 11.1165C5.48023 10.9422 5.57818 10.7057 5.57818 10.4591C5.57818 10.2126 5.48023 9.97609 5.30588 9.80174C5.13152 9.62739 4.89505 9.52944 4.64848 9.52944C4.40191 9.52944 4.16544 9.62739 3.99109 9.80174C3.81673 9.97609 3.71878 10.2126 3.71878 10.4591C3.71878 10.7057 3.81673 10.9422 3.99109 11.1165C4.16544 11.2909 4.40191 11.3888 4.64848 11.3888ZM4.64848 15.1076C4.89505 15.1076 5.13152 15.0097 5.30588 14.8353C5.48023 14.661 5.57818 14.4245 5.57818 14.1779C5.57818 13.9313 5.48023 13.6949 5.30588 13.5205C5.13152 13.3462 4.89505 13.2482 4.64848 13.2482C4.40191 13.2482 4.16544 13.3462 3.99109 13.5205C3.81673 13.6949 3.71878 13.9313 3.71878 14.1779C3.71878 14.4245 3.81673 14.661 3.99109 14.8353C4.16544 15.0097 4.40191 15.1076 4.64848 15.1076Z" fill="#C1C5F2"/>
</svg>
