<svg width="20" height="21" viewBox="0 0 20 21" fill="none" xmlns="http://www.w3.org/2000/svg">
<path fill-rule="evenodd" clip-rule="evenodd" d="M5 2.75037C5 2.55145 5.07902 2.36069 5.21967 2.22004C5.36032 2.07938 5.55109 2.00037 5.75 2.00037H13.75C13.9489 2.00037 14.1397 2.07938 14.2803 2.22004C14.421 2.36069 14.5 2.55145 14.5 2.75037C14.5 2.94928 14.421 3.14004 14.2803 3.2807C14.1397 3.42135 13.9489 3.50037 13.75 3.50037H5.75C5.55109 3.50037 5.36032 3.42135 5.21967 3.2807C5.07902 3.14004 5 2.94928 5 2.75037Z" fill="#C1C5F2"/>
<path d="M6.75 2.50037C6.94891 2.50037 7.13968 2.57938 7.28033 2.72004C7.42098 2.86069 7.5 3.05145 7.5 3.25037V9.01037C7.50009 9.66693 7.26527 10.3019 6.838 10.8004L4.954 12.9984H14.546L12.662 10.8004C12.2347 10.3019 11.9999 9.66693 12 9.01037V3.25037C12 3.05145 12.079 2.86069 12.2197 2.72004C12.3603 2.57938 12.5511 2.50037 12.75 2.50037C12.9489 2.50037 13.1397 2.57938 13.2803 2.72004C13.421 2.86069 13.5 3.05145 13.5 3.25037V9.01037C13.5 9.30937 13.607 9.59737 13.8 9.82437L18.838 15.7004C19.2653 16.1989 19.5001 16.8338 19.5 17.4904V17.7504C19.5 18.4797 19.2103 19.1792 18.6945 19.6949C18.1788 20.2106 17.4793 20.5004 16.75 20.5004H2.75C2.02065 20.5004 1.32118 20.2106 0.805456 19.6949C0.289731 19.1792 0 18.4797 0 17.7504V17.4904C0 16.8334 0.235 16.1994 0.662 15.7004L5.699 9.82437C5.893 9.59737 6 9.30937 6 9.01037V3.25037C6 3.05145 6.07902 2.86069 6.21967 2.72004C6.36032 2.57938 6.55109 2.50037 6.75 2.50037Z" fill="#C1C5F2"/>
<path fill-rule="evenodd" clip-rule="evenodd" d="M10.262 7.19232C10.4098 7.32535 10.4988 7.51163 10.5093 7.71023C10.5198 7.90882 10.451 8.10345 10.318 8.25132L10.308 8.26132C10.1739 8.40497 9.98879 8.49025 9.79246 8.49882C9.59613 8.50739 9.40428 8.43855 9.25818 8.30713C9.11208 8.1757 9.0234 7.99218 9.01121 7.79605C8.99902 7.59991 9.0643 7.40682 9.19301 7.25832L9.20301 7.24832C9.33604 7.10049 9.52233 7.01155 9.72092 7.00105C9.91951 6.99055 10.1141 7.05935 10.262 7.19232ZM9.26201 0.192321C9.40984 0.325345 9.49878 0.511635 9.50929 0.710226C9.51979 0.908816 9.45099 1.10345 9.31801 1.25132L9.30801 1.26132C9.17391 1.40497 8.98879 1.49025 8.79246 1.49882C8.59613 1.50739 8.40428 1.43855 8.25818 1.30713C8.11208 1.1757 8.0234 0.992183 8.01121 0.796045C7.99902 0.599908 8.0643 0.406822 8.19301 0.258321L8.20301 0.248321C8.33604 0.100493 8.52233 0.0115489 8.72092 0.00104742C8.91951 -0.00945407 9.11414 0.0593468 9.26201 0.192321Z" fill="#C1C5F2"/>
</svg>
