<svg width="32" height="31" viewBox="0 0 32 31" fill="none" xmlns="http://www.w3.org/2000/svg">
<path fill-rule="evenodd" clip-rule="evenodd" d="M11.35 0.34255V7.75H3.94255C4.08977 7.46387 4.28064 7.2024 4.5083 6.975L10.575 0.9083C10.8023 0.680087 11.0638 0.49024 11.35 0.34255ZM14.45 0V7.75C14.45 8.57217 14.1234 9.36067 13.542 9.94203C12.9607 10.5234 12.1722 10.85 11.35 10.85H3.6C2.77783 10.85 1.98933 11.1766 1.40797 11.758C0.826606 12.3393 0.5 13.1278 0.5 13.95V24.8C0.5 25.6222 0.826606 26.4107 1.40797 26.992C1.98933 27.5734 2.77783 27.9 3.6 27.9C3.6 28.7222 3.92661 29.5107 4.50797 30.092C5.08933 30.6734 5.87783 31 6.7 31H25.3C26.1222 31 26.9107 30.6734 27.492 30.092C28.0734 29.5107 28.4 28.7222 28.4 27.9C29.2222 27.9 30.0107 27.5734 30.592 26.992C31.1734 26.4107 31.5 25.6222 31.5 24.8V13.95C31.5 13.1278 31.1734 12.3393 30.592 11.758C30.0107 11.1766 29.2222 10.85 28.4 10.85V3.1C28.4 2.27783 28.0734 1.48933 27.492 0.907969C26.9107 0.326606 26.1222 0 25.3 0H14.45ZM5.15 13.95C4.73891 13.95 4.34467 14.1133 4.05398 14.404C3.7633 14.6947 3.6 15.0889 3.6 15.5V23.25C3.6 23.6611 3.7633 24.0553 4.05398 24.346C4.34467 24.6367 4.73891 24.8 5.15 24.8C5.56109 24.8 5.95533 24.6367 6.24602 24.346C6.5367 24.0553 6.7 23.6611 6.7 23.25V21.7H7.475C8.50271 21.7 9.48833 21.2917 10.215 20.565C10.9417 19.8383 11.35 18.8527 11.35 17.825C11.35 16.7973 10.9417 15.8117 10.215 15.085C9.48833 14.3583 8.50271 13.95 7.475 13.95H5.15ZM7.475 18.6H6.7V17.05H7.475C7.68054 17.05 7.87767 17.1317 8.02301 17.277C8.16835 17.4223 8.25 17.6195 8.25 17.825C8.25 18.0305 8.16835 18.2277 8.02301 18.373C7.87767 18.5183 7.68054 18.6 7.475 18.6ZM14.45 13.95C14.0389 13.95 13.6447 14.1133 13.354 14.404C13.0633 14.6947 12.9 15.0889 12.9 15.5V23.25C12.9 23.6611 13.0633 24.0553 13.354 24.346C13.6447 24.6367 14.0389 24.8 14.45 24.8H16.5828C17.6615 24.7992 18.6958 24.3702 19.4584 23.6073C20.221 22.8444 20.6496 21.81 20.65 20.7312V18.0187C20.6496 16.9398 20.2208 15.9051 19.4578 15.1422C18.6949 14.3792 17.6602 13.9504 16.5812 13.95H14.45ZM16 21.7V17.05H16.5812C16.8383 17.0504 17.0847 17.1528 17.2664 17.3347C17.448 17.5167 17.55 17.7632 17.55 18.0203V20.7297C17.5502 20.8572 17.5252 20.9834 17.4766 21.1013C17.4279 21.2191 17.3564 21.3261 17.2663 21.4163C17.1761 21.5064 17.0691 21.5779 16.9513 21.6266C16.8334 21.6752 16.7072 21.7002 16.5797 21.7H16ZM23.75 13.95C23.3389 13.95 22.9447 14.1133 22.654 14.404C22.3633 14.6947 22.2 15.0889 22.2 15.5V23.25C22.2 23.6611 22.3633 24.0553 22.654 24.346C22.9447 24.6367 23.3389 24.8 23.75 24.8C24.1611 24.8 24.5553 24.6367 24.846 24.346C25.1367 24.0553 25.3 23.6611 25.3 23.25V21.7H26.85C27.2611 21.7 27.6553 21.5367 27.946 21.246C28.2367 20.9553 28.4 20.5611 28.4 20.15C28.4 19.7389 28.2367 19.3447 27.946 19.054C27.6553 18.7633 27.2611 18.6 26.85 18.6H25.3V17.05H26.85C27.2611 17.05 27.6553 16.8867 27.946 16.596C28.2367 16.3053 28.4 15.9111 28.4 15.5C28.4 15.0889 28.2367 14.6947 27.946 14.404C27.6553 14.1133 27.2611 13.95 26.85 13.95H23.75Z" fill="white"/>
</svg>
