<svg width="31" height="24" viewBox="0 0 31 24" fill="none" xmlns="http://www.w3.org/2000/svg">
<path d="M26.7999 15.3795C26.6504 14.379 25.8484 13.599 24.8159 13.3665C20.8027 12.4605 19.7966 10.2345 19.6269 7.7655C18.9152 7.638 17.6491 7.5 15.5 7.5C13.3509 7.5 12.0848 7.638 11.3731 7.7655C11.2034 10.2345 10.1974 12.4605 6.18415 13.3665C5.15165 13.6005 4.34963 14.379 4.20013 15.3795L3.42614 20.5425C3.15361 22.3605 4.53962 24 6.46758 24H24.5324C26.4588 24 27.8464 22.3605 27.5739 20.5425L26.7999 15.3795ZM15.5 20.238C13.3276 20.238 11.5662 18.558 11.5662 16.488C11.5662 14.418 13.3276 12.738 15.5 12.738C17.6725 12.738 19.4338 14.418 19.4338 16.488C19.4338 18.558 17.6709 20.238 15.5 20.238ZM30.9953 6C30.9579 3.75 25.0121 0.0015 15.5 0C5.98637 0.0015 0.0405394 3.75 0.00472114 6C-0.0310971 8.25 0.0374248 11.178 3.95252 10.6905C8.53258 10.119 8.25071 8.5785 8.25071 6.3765C8.25071 4.8405 11.9758 4.47 15.5 4.47C19.0242 4.47 22.7478 4.8405 22.7493 6.3765C22.7493 8.5785 22.4674 10.119 27.0475 10.6905C30.961 11.178 31.0311 8.25 30.9953 6Z" fill="#AD272B"/>
</svg>
