<svg width="18" height="18" viewBox="0 0 18 18" fill="none" xmlns="http://www.w3.org/2000/svg">
<path d="M9 9C7.7625 9 6.70312 8.55937 5.82187 7.67812C4.94062 6.79687 4.5 5.7375 4.5 4.5C4.5 3.2625 4.94062 2.20312 5.82187 1.32188C6.70312 0.440625 7.7625 0 9 0C10.2375 0 11.2969 0.440625 12.1781 1.32188C13.0594 2.20312 13.5 3.2625 13.5 4.5C13.5 5.7375 13.0594 6.79687 12.1781 7.67812C11.2969 8.55937 10.2375 9 9 9ZM0 15.75V14.85C0 14.2125 0.16425 13.6267 0.49275 13.0927C0.82125 12.5587 1.257 12.1507 1.8 11.8687C2.9625 11.2875 4.14375 10.8517 5.34375 10.5615C6.54375 10.2712 7.7625 10.1257 9 10.125C10.2375 10.1242 11.4562 10.2697 12.6562 10.5615C13.8562 10.8532 15.0375 11.289 16.2 11.8687C16.7437 12.15 17.1799 12.558 17.5084 13.0927C17.8369 13.6275 18.0007 14.2132 18 14.85V15.75C18 16.3687 17.7799 16.8986 17.3396 17.3396C16.8994 17.7806 16.3695 18.0007 15.75 18H2.25C1.63125 18 1.10175 17.7799 0.6615 17.3396C0.22125 16.8994 0.00075 16.3695 0 15.75Z" fill="#C1C5F2"/>
</svg>
