<svg width="17" height="21" viewBox="0 0 17 21" fill="none" xmlns="http://www.w3.org/2000/svg">
<path d="M7.78243 0V7.18931C7.78243 8.44304 8.38874 9.04066 9.68244 9.04066H17V17.9342C17 19.9715 15.959 21 13.8667 21H3.13333C1.05134 21 0 19.9816 0 17.9342V3.0754C0 1.03809 1.05134 0 3.13333 0H7.78243ZM8.50259 14.9307C6.2369 14.9307 4.8272 16.4364 4.8272 17.5276C4.8272 17.8999 5.07171 18.0901 5.76125 18.0901H11.2431C11.9283 18.0901 12.1728 17.8999 12.1728 17.5276C12.1728 16.4368 10.7631 14.9307 8.50259 14.9307ZM8.50216 10.4854C7.56768 10.4854 6.75567 11.2765 6.75567 12.3129C6.75567 13.3619 7.56768 14.1739 8.50216 14.1739C9.44008 14.1739 10.2473 13.3614 10.2473 12.3041C10.2473 11.2593 9.4362 10.4854 8.50216 10.4854ZM9.1559 0.107821C9.58067 0.176358 10.0054 0.460537 10.4699 0.930269L16.05 6.42537C16.5248 6.90513 16.818 7.29713 16.8887 7.69875H9.71305C9.3491 7.69875 9.15677 7.52239 9.15677 7.16967L9.1559 0.107821Z" fill="#C1C5F2"/>
</svg>
