<svg width="34" height="34" viewBox="0 0 34 34" fill="none" xmlns="http://www.w3.org/2000/svg">
<path fill-rule="evenodd" clip-rule="evenodd" d="M30.9505 13.2141C30.8525 13.2096 30.7543 13.2079 30.6563 13.2091H26.5626C23.2138 13.2091 20.3457 15.867 20.3457 19.3336C20.3457 22.8001 23.2138 25.458 26.5643 25.458H30.6546C30.7577 25.4592 30.8558 25.4569 30.9488 25.4513C31.6398 25.4065 32.291 25.1123 32.7814 24.6234C33.2718 24.1345 33.5681 23.4843 33.6151 22.7934C33.6218 22.6942 33.6218 22.5883 33.6218 22.4908V16.1764C33.6218 16.0788 33.6218 15.9729 33.6151 15.8737C33.5681 15.1832 33.2721 14.5331 32.782 14.0443C32.292 13.5554 31.6412 13.2611 30.9505 13.2158M26.2045 20.9677C27.067 20.9677 27.768 20.238 27.768 19.3353C27.768 18.4325 27.067 17.7028 26.2045 17.7028C25.3421 17.7028 24.6427 18.4325 24.6427 19.3353C24.6427 20.238 25.3404 20.9677 26.2045 20.9677Z" fill="#1C2258"/>
<path fill-rule="evenodd" clip-rule="evenodd" d="M30.6543 27.9077C30.7106 27.9057 30.7666 27.917 30.8177 27.9407C30.8689 27.9643 30.9138 27.9996 30.9488 28.0438C30.9838 28.088 31.008 28.1397 31.0193 28.1949C31.0306 28.2501 31.0288 28.3072 31.014 28.3616C30.6879 29.525 30.1718 30.5169 29.343 31.3507C28.1308 32.5729 26.5926 33.1159 24.6929 33.3732C22.847 33.6237 20.49 33.6237 17.511 33.6237H14.0864C11.1091 33.6237 8.75043 33.6237 6.90452 33.3732C5.00481 33.1159 3.46655 32.5729 2.25444 31.3507C1.04232 30.1319 0.504348 28.5802 0.248812 26.667C0 24.8043 0 22.4271 0 19.4263V19.2413C0 16.2405 0 13.8616 0.248812 12.0023C0.504348 10.0874 1.04232 8.54076 2.25275 7.31519C3.46487 6.09467 5.00313 5.54997 6.90284 5.29444C8.75043 5.04395 11.1091 5.04395 14.0864 5.04395H17.511C20.4883 5.04395 22.847 5.04395 24.6929 5.29444C26.5926 5.55166 28.1308 6.09467 29.343 7.31519C30.1718 8.15073 30.6879 9.14261 31.014 10.3077C31.0285 10.3619 31.0301 10.4188 31.0186 10.4738C31.0071 10.5288 30.9829 10.5803 30.9479 10.6243C30.913 10.6683 30.8682 10.7034 30.8172 10.727C30.7662 10.7505 30.7104 10.7618 30.6543 10.7599H26.564C21.9677 10.7599 17.9178 14.4198 17.9178 19.3338C17.9178 24.2478 21.9694 27.9077 26.5657 27.9077H30.6543ZM6.07571 11.5769C5.91565 11.5776 5.75729 11.6098 5.60966 11.6716C5.46204 11.7335 5.32805 11.8238 5.21533 11.9375C5.10262 12.0511 5.0134 12.1859 4.95276 12.334C4.89212 12.4821 4.86125 12.6408 4.86191 12.8008C4.86191 13.4783 5.40493 14.0264 6.07571 14.0264H12.5583C13.2307 14.0264 13.7737 13.4783 13.7737 12.8008C13.7746 12.4774 13.6471 12.1669 13.4192 11.9374C13.1913 11.7079 12.8817 11.5783 12.5583 11.5769H6.07571Z" fill="#1C2258"/>
<path d="M9.7124 3.40325L13.0041 0.977333C13.8632 0.342551 14.9032 0 15.9714 0C17.0395 0 18.0795 0.342551 18.9386 0.977333L22.2488 3.4167C20.8635 3.3629 19.3169 3.3629 17.6239 3.3629H13.9758C12.4258 3.3629 11.0019 3.3629 9.7124 3.40325Z" fill="#1C2258"/>
</svg>
