<svg width="23" height="23" viewBox="0 0 23 23" fill="none" xmlns="http://www.w3.org/2000/svg">
<path d="M5.75057 0.32192C7.20555 1.38291 8.30686 2.8736 9.24459 4.24333L9.97957 5.32391C10.2078 5.65749 10.3122 6.06036 10.2748 6.46281C10.2373 6.86525 10.0604 7.24194 9.77451 7.52769L8.2124 9.0898L8.37713 9.44001C8.78033 10.2568 9.47614 11.433 10.5233 12.4813C11.2476 13.1921 12.0625 13.8041 12.9471 14.3015L13.3699 14.5284L13.7466 14.715L13.9148 14.7922L15.4758 13.2301C15.7624 12.9432 16.1408 12.7663 16.5447 12.7302C16.9487 12.6942 17.3524 12.8014 17.6853 13.0331L18.8534 13.843C20.1805 14.7761 21.5664 15.8394 22.6435 17.2195C22.8297 17.459 22.9481 17.7441 22.9864 18.045C23.0247 18.346 22.9815 18.6517 22.8612 18.9302C21.897 21.18 19.4571 23.0958 16.9192 23.0014L16.5736 22.9829L16.3052 22.9599L16.008 22.9253L15.6843 22.8816L15.3329 22.8228L14.9574 22.7491L14.5588 22.6604L14.1371 22.5521L13.6936 22.4254L13.2305 22.2756C11.1039 21.5544 8.40478 20.1375 5.63537 17.3681C2.86596 14.5987 1.45015 11.9007 0.728999 9.77409L0.579239 9.31098L0.452519 8.86746L0.344231 8.44583L0.254375 8.04724C0.228452 7.92239 0.204257 7.7972 0.181799 7.67169L0.124199 7.32033L0.0781185 6.99661L0.0447105 6.6994L0.0216704 6.43098L0.00323848 6.08538C-0.0900736 3.55559 1.84644 1.09837 4.08593 0.138752C4.35547 0.0223615 4.65064 -0.0219518 4.94248 0.0101602C5.23431 0.0422722 5.51279 0.149706 5.75057 0.32192ZM4.68267 2.40474C3.44772 3.04986 2.25194 4.52442 2.30609 6.00013L2.32913 6.37799L2.35447 6.61415L2.38788 6.87911L2.43396 7.17057L2.49271 7.48967L2.56759 7.83297L2.65975 8.20161L2.77034 8.59213L2.90167 9.00455C2.95006 9.14509 3.00151 9.28909 3.05604 9.43655L3.23345 9.88813L3.4362 10.357C4.15966 11.9491 5.33931 13.813 7.2666 15.7391C9.19275 17.6653 11.0567 18.8461 12.6488 19.5696L13.1176 19.7723L13.5692 19.9497C13.7167 20.005 13.8607 20.0565 14.0012 20.1041L14.4136 20.2354L14.8053 20.346L15.1728 20.4382L15.5161 20.513L15.8352 20.5718L16.1278 20.6179L16.3928 20.6524L16.6278 20.6755L17.0056 20.6985C18.4618 20.7527 19.9478 19.5638 20.5906 18.345C19.7704 17.3831 18.7521 16.5939 17.6289 15.7991L16.7672 15.1989L16.5483 15.4281L16.0806 15.9384L15.8329 16.1988C15.1578 16.8865 14.3698 17.4706 13.4252 17.0893L13.1648 16.9799L12.8469 16.837L12.6695 16.7529L12.2801 16.5582L11.8527 16.3278C10.7722 15.7243 9.77755 14.9785 8.89553 14.1102C8.02729 13.2282 7.28142 12.2336 6.67793 11.153L6.44753 10.7268L6.25169 10.3363L6.0259 9.8409L5.91531 9.57825C5.55703 8.69236 6.05009 7.94471 6.68024 7.29729L6.93828 7.04384L7.57995 6.45287L7.81035 6.23399L7.26545 5.43565C6.4556 4.26061 5.66417 3.20077 4.68151 2.40359L4.68267 2.40474ZM15.1233 4.46336L15.2569 4.47834C16.0954 4.62625 16.8656 5.03584 17.4571 5.6484C18.0485 6.26096 18.4309 7.04504 18.5493 7.88826C18.5915 8.17992 18.5204 8.47668 18.3505 8.71748C18.1806 8.95827 17.9248 9.1248 17.6359 9.18279C17.3469 9.24079 17.0468 9.18584 16.7971 9.02926C16.5474 8.87268 16.3673 8.62636 16.2937 8.341L16.2672 8.20852C16.2208 7.87801 16.0798 7.56799 15.861 7.31593C15.6423 7.06387 15.3552 6.88054 15.0345 6.7881L14.856 6.74778C14.5667 6.69651 14.308 6.53666 14.1326 6.30093C13.9573 6.06519 13.8787 5.77138 13.9128 5.47959C13.947 5.18781 14.0913 4.92008 14.3163 4.73118C14.5413 4.54228 14.83 4.44648 15.1233 4.46336ZM15.1313 0.96128C16.9645 0.96128 18.7226 1.68951 20.0188 2.98576C21.3151 4.28201 22.0433 6.04011 22.0433 7.87329C22.043 8.16691 21.9306 8.44932 21.729 8.66283C21.5274 8.87634 21.2519 9.00482 20.9588 9.02203C20.6657 9.03924 20.3771 8.94387 20.1519 8.75541C19.9268 8.56696 19.7821 8.29964 19.7474 8.00807L19.7393 7.87329C19.7392 6.7035 19.2942 5.57754 18.4945 4.72375C17.6949 3.86997 16.6004 3.35227 15.4331 3.27565L15.1313 3.26528C14.8258 3.26528 14.5328 3.14391 14.3167 2.92787C14.1007 2.71183 13.9793 2.41881 13.9793 2.11328C13.9793 1.80775 14.1007 1.51474 14.3167 1.29869C14.5328 1.08265 14.8258 0.96128 15.1313 0.96128Z" fill="#1C2258"/>
</svg>
