<svg width="28" height="19" viewBox="0 0 28 19" fill="none" xmlns="http://www.w3.org/2000/svg">
<path fill-rule="evenodd" clip-rule="evenodd" d="M16.9841 0.289012C13.5011 -0.0676803 9.99115 -0.0942726 6.50297 0.209604L4.17352 0.413178C3.23877 0.495379 2.35955 0.884025 1.67775 1.51639C0.995958 2.14875 0.551374 2.98793 0.415758 3.89849C-0.138586 7.61331 -0.138586 11.3875 0.415758 15.1023C0.551686 16.013 0.996562 16.8522 1.6786 17.4845C2.36065 18.1169 3.24007 18.5055 4.17499 18.5876L6.50445 18.7897C9.99258 19.0941 13.5025 19.068 16.9855 18.7118L17.8808 18.6194C18.7695 18.5279 19.6051 18.1603 20.2655 17.5702C20.9259 16.98 21.3766 16.1982 21.5517 15.3391L26.0383 17.6751C26.1994 17.759 26.3792 17.8025 26.5616 17.8017C26.7439 17.8008 26.9233 17.7557 27.0836 17.6704C27.2438 17.585 27.3801 17.462 27.48 17.3124C27.58 17.1629 27.6407 16.9913 27.6566 16.8132L27.6934 16.4031C28.1022 11.8096 28.1022 7.18978 27.6934 2.59619L27.6566 2.18615C27.6406 2.00791 27.5798 1.83634 27.4796 1.68677C27.3794 1.5372 27.243 1.41431 27.0826 1.32907C26.9221 1.24383 26.7426 1.1989 26.5601 1.1983C26.3777 1.19771 26.1979 1.24146 26.0368 1.32565L21.5517 3.6617C21.3766 2.80255 20.9259 2.02079 20.2655 1.43063C19.6051 0.840471 18.7695 0.472832 17.8808 0.381415L16.9841 0.289012ZM6.70029 2.36663C10.0458 2.0736 13.4124 2.09923 16.7529 2.44315L17.6481 2.53555C18.0856 2.58096 18.4952 2.76777 18.8124 3.06654C19.1296 3.36531 19.3365 3.75907 19.4004 4.1858C19.9275 7.71009 19.9275 11.2892 19.4004 14.815C19.3365 15.2417 19.1296 15.6355 18.8124 15.9342C18.4952 16.233 18.0856 16.4198 17.6481 16.4652L16.7529 16.5576C13.4124 16.9016 10.0458 16.9272 6.70029 16.6342L4.37083 16.4291C3.93058 16.3906 3.51638 16.2079 3.19502 15.9103C2.87366 15.6128 2.66386 15.2178 2.59944 14.789C2.07608 11.2819 2.07608 7.71885 2.59944 4.21179C2.66331 3.78266 2.8729 3.38719 3.19434 3.08931C3.51577 2.79143 3.93027 2.60853 4.37083 2.5702L6.70029 2.36663ZM21.8403 5.96311C22.0597 8.31648 22.0597 10.6843 21.8403 13.0377L25.5907 14.9911C25.8589 11.3354 25.8589 7.66542 25.5907 4.00966L21.8403 5.96311Z" fill="#1C2258"/>
</svg>
